<svg width="143" height="143" viewBox="0 0 143 143" fill="none" xmlns="http://www.w3.org/2000/svg">
<path d="M0 71.5C0 32.0116 32.0116 0 71.5 0V0C110.988 0 143 32.0116 143 71.5V71.5C143 110.988 110.988 143 71.5 143V143C32.0116 143 0 110.988 0 71.5V71.5Z" fill="black"/>
<path d="M55.176 108V42.72H75.528C81.8 42.72 86.568 44.384 89.832 47.712C93.16 50.976 94.824 55.36 94.824 60.864V65.952C94.824 71.456 93.16 75.872 89.832 79.2C86.568 82.528 81.8 84.192 75.528 84.192H63.528V108H55.176ZM75.528 50.592H63.528V76.416H75.528C78.984 76.416 81.608 75.488 83.4 73.632C85.256 71.776 86.184 69.216 86.184 65.952V60.864C86.184 57.664 85.256 55.168 83.4 53.376C81.608 51.52 78.984 50.592 75.528 50.592Z" fill="white"/>
</svg>
